#!OML:ASF E:\motion texture\Top Level 1\Subject 1\Session 1\male.ASF
:FULLY-SPECIFIED
:DEGREES
535
root -27.7558 17.6382 2.94793 507.586 -81.6766 -498.554
lowerback -0.781179 3.80535 6.53241
upperback -1.13965 4.95157 3.84304
thorax -0.523999 2.38927 0.339274
lowerneck -19.2664 -4.06647 -7.13679
upperneck -2.32135 -4.39954 7.21177
head 2.63264 -1.97055 3.02497
rclavicle 3.24019e-014 1.43125e-014
rhumerus -29.5511 -44.6686 -72.8879
rradius 15.6903
rwrist 2.19672
rhand -19.4676 -57.4625
rfingers 7.12502
rthumb 6.85377 -447.332
lclavicle 3.24019e-014 1.43125e-014
lhumerus -54.0521 42.9099 58.182
lradius 14.1445
lwrist -78.4712
lhand -6.69381 20.8217
lfingers 7.12502
lthumb 19.1653 49.8974
rfemur -5.44285 2.24221 26.4926
rtibia 41.4399
rfoot -7.89196 -10.9193
rtoes -8.1151
lfemur -33.0262 -2.09429 -12.2651
ltibia 24.0257
lfoot -1.55161 3.34091
ltoes -1.8976
536
root -27.9155 17.6443 2.95984 508.569 -81.8103 -499.579
lowerback -0.717938 3.77956 6.36687
upperback -1.11357 4.92546 3.81284
thorax -0.544565 2.37885 0.39452
lowerneck -19.1205 -4.12732 -7.25713
upperneck -2.37079 -4.45893 7.19858
head 2.60231 -2.00222 3.03696
rclavicle 2.28602e-014 -2.38542e-015
rhumerus -30.1714 -45.4087 -71.9221
rradius 15.6123
rwrist 2.65279
rhand -19.284 -57.4762
rfingers 7.12502
rthumb 7.03106 -447.339
lclavicle 2.28602e-014 -2.38542e-015
lhumerus -56.9705 44.426 54.0772
lradius 13.6297
lwrist -81.3324
lhand -6.26509 20.2031
lfingers 7.12502
lthumb 19.5775 49.2374
rfemur -6.05779 2.20189 26.118
rtibia 42.879
rfoot -6.92396 -10.9044
rtoes -7.62735
lfemur -32.7374 -2.17517 -12.7193
ltibia 24.5243
lfoot -1.70585 3.11939
ltoes -1.35662
537
root -28.0749 17.6515 2.97119 509.603 -81.9424 -500.666
lowerback -0.662125 3.75325 6.19608
upperback -1.09159 4.89805 3.78081
thorax -0.565425 2.36775 0.451234
lowerneck -18.9481 -4.18631 -7.37699
upperneck -2.43663 -4.51766 7.18593
head 2.56314 -2.03404 3.0496
rclavicle -5.1684e-015 0
rhumerus -30.589 -45.9079 -71.2281
rradius 15.5909
rwrist 2.84864
rhand -19.1023 -57.4832
rfingers 7.12502
rthumb 7.20645 -447.34
lclavicle -5.1684e-015 0
lhumerus -59.8918 45.6867 49.997
lradius 13.2026
lwrist -83.9908
lhand -5.85792 19.6324
lfingers 7.12502
lthumb 19.9689 48.6264
rfemur -6.70136 2.15804 25.7427
rtibia 44.3154
rfoot -5.96425 -10.8977
rtoes -7.04308
lfemur -32.4033 -2.25779 -13.1731
ltibia 24.9816
lfoot -1.88659 2.91276
ltoes -0.848015
538
root -28.2337 17.6598 2.98193 510.69 -82.0692 -501.813
lowerback -0.614068 3.72751 6.02169
upperback -1.07229 4.87066 3.74757
thorax -0.584799 2.35669 0.509235
lowerneck -18.7527 -4.24363 -7.49971
upperneck -2.52136 -4.57545 7.17877
head 2.51512 -2.06562 3.06501
rclavicle -2.40529e-014 -1.43125e-014
rhumerus -30.7891 -46.1847 -70.8171
rradius 15.626
rwrist 2.79733
rhand -18.8823 -57.4179
rfingers 7.12502
rthumb 7.41874 -447.268
lclavicle -2.40529e-014 -1.43125e-014
lhumerus -62.7274 46.6969 46.0451
lradius 12.8525
lwrist -86.4097
lhand -5.46707 19.1123
lfingers 7.12502
lthumb 20.3446 48.0667
rfemur -7.37194 2.11235 25.3691
rtibia 45.7394
rfoot -5.02401 -10.8984
rtoes -6.38781
lfemur -32.0237 -2.33965 -13.6227
ltibia 25.3914
lfoot -2.09384 2.72086
ltoes -0.376677
539
root -28.3919 17.6689 2.99197 511.826 -82.1912 -503.018
lowerback -0.573569 3.7017 5.84338
upperback -1.05844 4.84265 3.71291
thorax -0.605668 2.34523 0.568339
lowerneck -18.526 -4.29831 -7.62349
upperneck -2.62766 -4.63186 7.176
head 2.4561 -2.0969 3.08276
rclavicle 5.96354e-015 1.90833e-014
rhumerus -30.7749 -46.2548 -70.6838
rradius 15.7143
rwrist 2.51359
rhand -18.7307 -57.5319
rfingers 7.12502
rthumb 7.5651 -447.377
lclavicle 5.96354e-015 1.90833e-014
lhumerus -65.3704 47.451 42.3559
lradius 12.5739
lwrist -88.5248
lhand -5.10069 18.6458
lfingers 7.12502
lthumb 20.6967 47.5622
rfemur -8.06993 2.06484 24.9988
rtibia 47.146
rfoot -4.11588 -10.9073
rtoes -5.6779
lfemur -31.6021 -2.41905 -14.0674
ltibia 25.752
lfoot -2.32704 2.54025
ltoes 0.0562233
